<?xml version="1.0" encoding="UTF-8" standalone="no"?>
<!DOCTYPE svg PUBLIC "-//W3C//DTD SVG 1.1//EN" "http://www.w3.org/Graphics/SVG/1.1/DTD/svg11.dtd">
<svg width="100%" height="100%" viewBox="0 0 250 60" version="1.1" xmlns="http://www.w3.org/2000/svg" xmlns:xlink="http://www.w3.org/1999/xlink" xml:space="preserve" xmlns:serif="http://www.serif.com/" style="fill-rule:evenodd;clip-rule:evenodd;stroke-linejoin:round;stroke-miterlimit:2;">
    <path d="M0,53.097l6.362,-0l0,-11.976c1.711,2.887 4.545,4.598 8.127,4.598c7.431,-0 11.334,-6.577 11.334,-14.97c0,-8.394 -3.903,-14.971 -11.334,-14.971c-3.85,0 -6.63,1.872 -8.287,5.08l-0.161,-4.438l-6.041,0l0,36.677Zm12.831,-13.153c-3.956,0 -6.469,-3.207 -6.469,-9.195c0,-5.989 2.46,-9.196 6.469,-9.196c4.01,-0 6.309,3.314 6.309,9.196c0,5.881 -2.299,9.195 -6.309,9.195Z" style="fill:#1a4a80;fill-rule:nonzero;"/>
    <path d="M31.758,45.077l26.946,-0l0,-5.453l-9.517,-0l0,-23.204l-16.894,0l-0,5.453l10.586,0l-0,17.751l-11.121,-0l-0,5.453Zm10.853,-32.293l6.523,0l-0,-5.881l-6.523,0l0,5.881Z" style="fill:#1a4a80;fill-rule:nonzero;"/>
    <path d="M64.157,53.097l6.363,-0l-0,-11.976c1.711,2.887 4.544,4.598 8.126,4.598c7.432,-0 11.335,-6.577 11.335,-14.97c-0,-8.394 -3.903,-14.971 -11.335,-14.971c-3.849,0 -6.629,1.872 -8.287,5.08l-0.16,-4.438l-6.042,0l0,36.677Zm12.832,-13.153c-3.956,0 -6.469,-3.207 -6.469,-9.195c-0,-5.989 2.459,-9.196 6.469,-9.196c4.01,-0 6.309,3.314 6.309,9.196c-0,5.881 -2.299,9.195 -6.309,9.195Z" style="fill:#1a4a80;fill-rule:nonzero;"/>
    <path d="M108.533,45.719c6.362,-0 10.8,-3.796 12.564,-9.303l-6.683,-0.588c-0.909,2.619 -2.941,4.116 -5.881,4.116c-3.743,0 -6.309,-2.512 -6.683,-7.592l19.835,0l0,-1.443c0,-9.891 -5.934,-15.131 -13.259,-15.131c-7.913,0 -13.313,5.775 -13.313,14.971c0,9.088 5.347,14.97 13.42,14.97Zm6.202,-17.804l-12.778,-0c0.695,-4.17 3.047,-6.362 6.469,-6.362c3.315,-0 5.721,2.192 6.309,6.362Z" style="fill:#1a4a80;fill-rule:nonzero;"/>
    <path d="M138.901,15.885l-0,23.739l-10.907,-0l0,5.453l26.946,-0l0,-5.453l-9.677,-0l0,-23.257c0,-6.149 -3.101,-9.25 -9.249,-9.25l-6.951,0l0,5.454l6.523,-0c2.139,-0 3.315,1.176 3.315,3.314Z" style="fill:#1a4a80;fill-rule:nonzero;"/>
    <path d="M160.073,45.077l26.946,-0l-0,-5.453l-9.517,-0l0,-23.204l-16.895,0l0,5.453l10.586,0l0,17.751l-11.12,-0l-0,5.453Zm10.853,-32.293l6.523,0l-0,-5.881l-6.523,0l0,5.881Z" style="fill:#1a4a80;fill-rule:nonzero;"/>
    <path d="M193.381,45.077l6.362,-0l0,-16.521c0,-4.811 2.513,-7.324 5.828,-7.324c3.422,-0 4.758,2.245 4.758,7.004l0,16.841l6.363,-0l-0,-18.552c-0,-6.309 -3.048,-10.747 -9.089,-10.747c-3.743,0 -6.897,1.872 -8.341,5.828l-0.16,-5.186l-5.721,0l0,28.657Z" style="fill:#1a4a80;fill-rule:nonzero;"/>
    <path d="M236.848,45.719c6.362,-0 10.8,-3.796 12.564,-9.303l-6.683,-0.588c-0.909,2.619 -2.941,4.116 -5.881,4.116c-3.743,0 -6.309,-2.512 -6.683,-7.592l19.835,0l-0,-1.443c-0,-9.891 -5.935,-15.131 -13.259,-15.131c-7.913,0 -13.313,5.775 -13.313,14.971c0,9.088 5.347,14.97 13.42,14.97Zm6.202,-17.804l-12.778,-0c0.695,-4.17 3.047,-6.362 6.469,-6.362c3.315,-0 5.721,2.192 6.309,6.362Z" style="fill:#1a4a80;fill-rule:nonzero;"/>
</svg>
